<svg width="24" height="24" viewBox="0 0 24 24" fill="none" xmlns="http://www.w3.org/2000/svg">
<path d="M2.99999 6C2.84086 6 2.68825 6.06321 2.57573 6.17574C2.46321 6.28826 2.39999 6.44087 2.39999 6.6C2.39999 6.75913 2.46321 6.91174 2.57573 7.02426C2.68825 7.13679 2.84086 7.2 2.99999 7.2H21C21.1591 7.2 21.3117 7.13679 21.4243 7.02426C21.5368 6.91174 21.6 6.75913 21.6 6.6C21.6 6.44087 21.5368 6.28826 21.4243 6.17574C21.3117 6.06321 21.1591 6 21 6H2.99999ZM2.99999 9.6C2.84086 9.6 2.68825 9.66321 2.57573 9.77574C2.46321 9.88826 2.39999 10.0409 2.39999 10.2C2.39999 10.3591 2.46321 10.5117 2.57573 10.6243C2.68825 10.7368 2.84086 10.8 2.99999 10.8H21C21.1591 10.8 21.3117 10.7368 21.4243 10.6243C21.5368 10.5117 21.6 10.3591 21.6 10.2C21.6 10.0409 21.5368 9.88826 21.4243 9.77574C21.3117 9.66321 21.1591 9.6 21 9.6H2.99999ZM2.39999 13.8C2.39999 13.6409 2.46321 13.4883 2.57573 13.3757C2.68825 13.2632 2.84086 13.2 2.99999 13.2H21C21.1591 13.2 21.3117 13.2632 21.4243 13.3757C21.5368 13.4883 21.6 13.6409 21.6 13.8C21.6 13.9591 21.5368 14.1117 21.4243 14.2243C21.3117 14.3368 21.1591 14.4 21 14.4H2.99999C2.84086 14.4 2.68825 14.3368 2.57573 14.2243C2.46321 14.1117 2.39999 13.9591 2.39999 13.8ZM2.99999 16.8C2.84086 16.8 2.68825 16.8632 2.57573 16.9757C2.46321 17.0883 2.39999 17.2409 2.39999 17.4C2.39999 17.5591 2.46321 17.7117 2.57573 17.8243C2.68825 17.9368 2.84086 18 2.99999 18H15C15.1591 18 15.3117 17.9368 15.4243 17.8243C15.5368 17.7117 15.6 17.5591 15.6 17.4C15.6 17.2409 15.5368 17.0883 15.4243 16.9757C15.3117 16.8632 15.1591 16.8 15 16.8H2.99999Z" fill="#060505"/>
</svg>
