<svg width="24" height="24" viewBox="0 0 24 24" fill="none" xmlns="http://www.w3.org/2000/svg">
<path d="M5 22C4.73478 22 4.48043 21.8946 4.29289 21.7071C4.10536 21.5196 4 21.2652 4 21V13C4 12.7348 4.10536 12.4804 4.29289 12.2929C4.48043 12.1054 4.73478 12 5 12C5.26522 12 5.51957 12.1054 5.70711 12.2929C5.89464 12.4804 6 12.7348 6 13V21C6 21.2652 5.89464 21.5196 5.70711 21.7071C5.51957 21.8946 5.26522 22 5 22ZM10 22C9.73478 22 9.48043 21.8946 9.29289 21.7071C9.10536 21.5196 9 21.2652 9 21V3C9 2.73478 9.10536 2.48043 9.29289 2.29289C9.48043 2.10536 9.73478 2 10 2C10.2652 2 10.5196 2.10536 10.7071 2.29289C10.8946 2.48043 11 2.73478 11 3V21C11 21.2652 10.8946 21.5196 10.7071 21.7071C10.5196 21.8946 10.2652 22 10 22ZM15 22C14.7348 22 14.4804 21.8946 14.2929 21.7071C14.1054 21.5196 14 21.2652 14 21V9C14 8.73478 14.1054 8.48043 14.2929 8.29289C14.4804 8.10536 14.7348 8 15 8C15.2652 8 15.5196 8.10536 15.7071 8.29289C15.8946 8.48043 16 8.73478 16 9V21C16 21.2652 15.8946 21.5196 15.7071 21.7071C15.5196 21.8946 15.2652 22 15 22ZM20 22C19.7348 22 19.4804 21.8946 19.2929 21.7071C19.1054 21.5196 19 21.2652 19 21V17C19 16.7348 19.1054 16.4804 19.2929 16.2929C19.4804 16.1054 19.7348 16 20 16C20.2652 16 20.5196 16.1054 20.7071 16.2929C20.8946 16.4804 21 16.7348 21 17V21C21 21.2652 20.8946 21.5196 20.7071 21.7071C20.5196 21.8946 20.2652 22 20 22Z" fill="black"/>
</svg>
