<svg width="20" height="24" viewBox="0 0 20 24" fill="none" xmlns="http://www.w3.org/2000/svg">
<path d="M11.6531 2.10896L11.6532 2.1088C12.3889 1.31033 13.1739 0.898156 13.7728 0.691467C13.9877 0.617328 14.1775 0.57005 14.3308 0.540997C14.3292 0.673121 14.3181 0.83552 14.2891 1.02382C14.2003 1.60067 13.9434 2.42385 13.2733 3.36753C12.6348 4.26683 11.8193 4.69642 11.1559 4.89773C10.8778 4.98213 10.6286 5.02557 10.4347 5.04607C10.4387 4.86739 10.4571 4.63952 10.5055 4.37948C10.6258 3.73194 10.9298 2.89334 11.6531 2.10896ZM14.7058 6.29538C14.7594 6.30109 14.8292 6.30853 14.873 6.31048C15.617 6.34748 16.3436 6.54902 17.0003 6.90056C17.4365 7.1449 17.8768 7.5186 18.2092 7.85243C18.2866 7.93015 18.3563 8.00388 18.4171 8.07118C18.186 8.23534 17.8899 8.47304 17.5855 8.80569C16.9249 9.52751 16.247 10.6732 16.0768 12.4303C15.8984 14.2715 16.774 15.6557 17.6528 16.5685C18.0933 17.0261 18.5437 17.3756 18.8837 17.6176C19.0004 17.7006 19.1053 17.7719 19.1911 17.8295C19.1752 17.8765 19.1561 17.9305 19.1334 17.992C19.0216 18.2949 18.8397 18.7342 18.5847 19.3151C17.9137 20.5604 17.299 21.4752 16.7634 22.1128C16.2177 22.7623 15.7844 23.0876 15.489 23.2084C14.7608 23.5045 14.0913 23.5968 13.3979 23.3683C12.2643 22.7708 11.1519 22.5429 10.5447 22.5208L10.5446 22.5208C10.2098 22.5087 9.68478 22.5818 9.16499 22.7081C8.64977 22.8332 8.07318 23.0264 7.63463 23.291C7.27726 23.4687 6.81355 23.526 6.36384 23.4898C5.89489 23.452 5.54168 23.3215 5.40709 23.2236C4.97412 22.9088 3.87928 21.9333 3.05601 20.5269L3.04216 20.5033L3.02582 20.4813C2.1488 19.3011 1.60849 17.6827 1.2364 16.5682C1.22036 16.5202 1.20464 16.4731 1.18921 16.427C1.02522 15.9364 0.810942 14.8314 0.760857 13.5687C0.710622 12.3022 0.829356 10.9556 1.27317 9.94685L1.27322 9.94674C2.19298 7.85471 3.48547 7.10493 4.11219 6.85424L4.11268 6.85405C4.86515 6.55214 5.76156 6.23319 6.56765 6.38892L6.58001 6.39131L6.59247 6.39307C7.29241 6.49208 7.98013 6.73079 8.57782 6.95537C8.65567 6.98462 8.73318 7.01409 8.80944 7.04308C9.01648 7.1218 9.21424 7.197 9.38433 7.2547C9.59552 7.32634 9.86166 7.40778 10.0914 7.39469L10.0915 7.39469C10.2753 7.38419 10.524 7.31946 10.7574 7.25089C11.0073 7.17744 11.2984 7.08118 11.5912 6.98177C11.732 6.93396 11.8724 6.88572 12.0096 6.83861C12.4573 6.68481 12.8701 6.54303 13.147 6.46728L13.147 6.46727C13.6863 6.31966 14.0742 6.28143 14.3358 6.27757C14.4669 6.27564 14.5703 6.28228 14.6505 6.28967C14.6641 6.29093 14.6836 6.293 14.7058 6.29538Z" fill="#F8F6F4" stroke="black"/>
<path d="M11.6531 2.10896L11.6532 2.1088C12.3889 1.31033 13.1739 0.898156 13.7728 0.691467C13.9877 0.617328 14.1775 0.57005 14.3308 0.540997C14.3292 0.673121 14.3181 0.83552 14.2891 1.02382C14.2003 1.60067 13.9434 2.42385 13.2733 3.36753C12.6348 4.26683 11.8193 4.69642 11.1559 4.89773C10.8778 4.98213 10.6286 5.02557 10.4347 5.04607C10.4387 4.86739 10.4571 4.63952 10.5055 4.37948C10.6258 3.73194 10.9298 2.89334 11.6531 2.10896ZM14.7058 6.29538C14.7594 6.30109 14.8292 6.30853 14.873 6.31048C15.617 6.34748 16.3436 6.54902 17.0003 6.90056C17.4365 7.1449 17.8768 7.5186 18.2092 7.85243C18.2866 7.93015 18.3563 8.00388 18.4171 8.07118C18.186 8.23534 17.8899 8.47304 17.5855 8.80569C16.9249 9.52751 16.247 10.6732 16.0768 12.4303C15.8984 14.2715 16.774 15.6557 17.6528 16.5685C18.0933 17.0261 18.5437 17.3756 18.8837 17.6176C19.0004 17.7006 19.1053 17.7719 19.1911 17.8295C19.1752 17.8765 19.1561 17.9305 19.1334 17.992C19.0216 18.2949 18.8397 18.7342 18.5847 19.3151C17.9137 20.5604 17.299 21.4752 16.7634 22.1128C16.2177 22.7623 15.7844 23.0876 15.489 23.2084C14.7608 23.5045 14.0913 23.5968 13.3979 23.3683C12.2643 22.7708 11.1519 22.5429 10.5447 22.5208L10.5446 22.5208C10.2098 22.5087 9.68478 22.5818 9.16499 22.7081C8.64977 22.8332 8.07318 23.0264 7.63463 23.291C7.27726 23.4687 6.81355 23.526 6.36384 23.4898C5.89489 23.452 5.54168 23.3215 5.40709 23.2236C4.97412 22.9088 3.87928 21.9333 3.05601 20.5269L3.04216 20.5033L3.02582 20.4813C2.1488 19.3011 1.60849 17.6827 1.2364 16.5682C1.22036 16.5202 1.20464 16.4731 1.18921 16.427C1.02522 15.9364 0.810942 14.8314 0.760857 13.5687C0.710622 12.3022 0.829356 10.9556 1.27317 9.94685L1.27322 9.94674C2.19298 7.85471 3.48547 7.10493 4.11219 6.85424L4.11268 6.85405C4.86515 6.55214 5.76156 6.23319 6.56765 6.38892L6.58001 6.39131L6.59247 6.39307C7.29241 6.49208 7.98013 6.73079 8.57782 6.95537C8.65567 6.98462 8.73318 7.01409 8.80944 7.04308C9.01648 7.1218 9.21424 7.197 9.38433 7.2547C9.59552 7.32634 9.86166 7.40778 10.0914 7.39469L10.0915 7.39469C10.2753 7.38419 10.524 7.31946 10.7574 7.25089C11.0073 7.17744 11.2984 7.08118 11.5912 6.98177C11.732 6.93396 11.8724 6.88572 12.0096 6.83861C12.4573 6.68481 12.8701 6.54303 13.147 6.46728L13.147 6.46727C13.6863 6.31966 14.0742 6.28143 14.3358 6.27757C14.4669 6.27564 14.5703 6.28228 14.6505 6.28967C14.6641 6.29093 14.6836 6.293 14.7058 6.29538Z" fill="#F8F6F4" stroke="black"/>
</svg>
