<svg width="24" height="24" viewBox="0 0 24 24" fill="none" xmlns="http://www.w3.org/2000/svg">
<path fill-rule="evenodd" clip-rule="evenodd" d="M4.71053 3.375H2V4.625H4.23715L7.04951 14.6176L7.17776 15.0732H7.65114H19.0146H19.477L19.6122 14.631L22.1043 6.48205L22.3513 5.67427H21.5066H7.65114V6.92427H20.6619L18.5521 13.8232H8.12452L5.31216 3.83068L5.18391 3.375H4.71053ZM9.42857 17.1964C8.82697 17.1964 8.33928 17.6841 8.33928 18.2857C8.33928 18.8873 8.82697 19.375 9.42857 19.375C10.0302 19.375 10.5179 18.8873 10.5179 18.2857C10.5179 17.6841 10.0302 17.1964 9.42857 17.1964ZM7.08928 18.2857C7.08928 16.9938 8.13661 15.9464 9.42857 15.9464C10.7205 15.9464 11.7679 16.9938 11.7679 18.2857C11.7679 19.5777 10.7205 20.625 9.42857 20.625C8.13661 20.625 7.08928 19.5777 7.08928 18.2857ZM17.4286 17.1964C16.827 17.1964 16.3393 17.6841 16.3393 18.2857C16.3393 18.8873 16.827 19.375 17.4286 19.375C18.0302 19.375 18.5179 18.8873 18.5179 18.2857C18.5179 17.6841 18.0302 17.1964 17.4286 17.1964ZM15.0893 18.2857C15.0893 16.9938 16.1366 15.9464 17.4286 15.9464C18.7205 15.9464 19.7679 16.9938 19.7679 18.2857C19.7679 19.5777 18.7205 20.625 17.4286 20.625C16.1366 20.625 15.0893 19.5777 15.0893 18.2857Z" fill="#161412"/>
</svg>
