<svg width="24" height="24" viewBox="0 0 24 24" fill="none" xmlns="http://www.w3.org/2000/svg">
<path d="M21 2.4375C19.05 2.4375 16.8647 3.50719 14.5032 5.61562C12.8082 7.13062 11.3438 8.89687 10.3407 10.2187C9.52369 9.94711 8.6539 9.87334 7.80285 10.0035C6.95181 10.1337 6.14384 10.4641 5.44544 10.9675C4.74703 11.471 4.17815 12.1331 3.78561 12.8993C3.39307 13.6656 3.18808 14.5141 3.18753 15.375C3.18753 18.3816 1.27222 19.7241 1.18597 19.7812C1.08504 19.8482 1.00842 19.9459 0.967486 20.0599C0.926556 20.1739 0.923505 20.298 0.958788 20.4139C0.994071 20.5297 1.0658 20.6311 1.16332 20.7029C1.26083 20.7747 1.37892 20.8132 1.50003 20.8125H8.62503C9.48597 20.8119 10.3345 20.607 11.1007 20.2144C11.867 19.8219 12.5291 19.253 13.0325 18.5546C13.5359 17.8562 13.8663 17.0482 13.9965 16.1972C14.1267 15.3461 14.0529 14.4763 13.7813 13.6594C15.1013 12.6591 16.8675 11.1919 18.3825 9.49687C20.4928 7.13531 21.5625 4.95 21.5625 3C21.5625 2.85082 21.5033 2.70774 21.3978 2.60225C21.2923 2.49676 21.1492 2.4375 21 2.4375ZM8.62503 19.6875H2.87347C3.55503 18.8297 4.31253 17.4169 4.31253 15.375C4.31253 14.5221 4.56545 13.6883 5.03932 12.9791C5.51318 12.2699 6.1867 11.7172 6.97471 11.3908C7.76271 11.0644 8.62981 10.979 9.46636 11.1454C10.3029 11.3118 11.0713 11.7225 11.6744 12.3256C12.2775 12.9287 12.6883 13.6971 12.8547 14.5337C13.0211 15.3702 12.9357 16.2373 12.6093 17.0253C12.2829 17.8133 11.7301 18.4868 11.0209 18.9607C10.3117 19.4346 9.47796 19.6875 8.62503 19.6875ZM11.3897 10.6959C11.7272 10.2581 12.1285 9.75844 12.5813 9.225C13.4607 9.79131 14.2087 10.5393 14.775 11.4187C14.2435 11.8716 13.7438 12.2728 13.3041 12.6103C12.8364 11.8219 12.1781 11.1637 11.3897 10.6959ZM15.6272 10.6678C15.0175 9.76186 14.2382 8.98252 13.3322 8.37281C15.286 6.23062 17.9063 3.9375 20.3963 3.60375C20.0625 6.09375 17.7694 8.71875 15.6272 10.6678Z" fill="#060505"/>
</svg>
