<svg width="20" height="20" viewBox="0 0 20 20" fill="none" xmlns="http://www.w3.org/2000/svg">
<path fill-rule="evenodd" clip-rule="evenodd" d="M3.92577 2.70825H1.66699V3.95825H3.45239L5.77465 12.2094L5.9029 12.6651H6.37627H15.8458H16.3082L16.4435 12.2229L18.5202 5.43209L18.7672 4.62431H17.9225H6.37627V5.87431H17.0778L15.3834 11.4151H6.84965L4.52739 3.16393L4.39915 2.70825H3.92577ZM7.85746 14.4344C7.41366 14.4344 7.05389 14.7942 7.05389 15.238C7.05389 15.6818 7.41366 16.0416 7.85746 16.0416C8.30126 16.0416 8.66103 15.6818 8.66103 15.238C8.66103 14.7942 8.30126 14.4344 7.85746 14.4344ZM5.80389 15.238C5.80389 14.1039 6.72331 13.1844 7.85746 13.1844C8.99162 13.1844 9.91103 14.1039 9.91103 15.238C9.91103 16.3722 8.99162 17.2916 7.85746 17.2916C6.72331 17.2916 5.80389 16.3722 5.80389 15.238ZM14.5241 14.4344C14.0803 14.4344 13.7206 14.7942 13.7206 15.238C13.7206 15.6818 14.0803 16.0416 14.5241 16.0416C14.9679 16.0416 15.3277 15.6818 15.3277 15.238C15.3277 14.7942 14.9679 14.4344 14.5241 14.4344ZM12.4706 15.238C12.4706 14.1039 13.39 13.1844 14.5241 13.1844C15.6583 13.1844 16.5777 14.1039 16.5777 15.238C16.5777 16.3722 15.6583 17.2916 14.5241 17.2916C13.39 17.2916 12.4706 16.3722 12.4706 15.238Z" fill="white"/>
</svg>
