<svg width="24" height="24" viewBox="0 0 24 24" fill="none" xmlns="http://www.w3.org/2000/svg">
<path fill-rule="evenodd" clip-rule="evenodd" d="M20.207 6.793C20.3945 6.98053 20.4998 7.23484 20.4998 7.5C20.4998 7.76516 20.3945 8.01947 20.207 8.207L10.707 17.707C10.5195 17.8945 10.2652 17.9998 10 17.9998C9.73485 17.9998 9.48054 17.8945 9.29301 17.707L4.79301 13.207C4.61085 13.0184 4.51006 12.7658 4.51234 12.5036C4.51461 12.2414 4.61978 11.9906 4.80519 11.8052C4.9906 11.6198 5.24141 11.5146 5.50361 11.5123C5.76581 11.51 6.01841 11.6108 6.20701 11.793L10 15.586L18.793 6.793C18.9805 6.60553 19.2348 6.50021 19.5 6.50021C19.7652 6.50021 20.0195 6.60553 20.207 6.793Z" fill="#00FF0A"/>
</svg>
