<svg width="24" height="24" viewBox="0 0 24 24" fill="none" xmlns="http://www.w3.org/2000/svg">
<path fill-rule="evenodd" clip-rule="evenodd" d="M4.48001 1.6H4.40001C4.03361 1.6 3.71841 1.6 3.44001 1.6656C3.00902 1.76858 2.61497 1.98887 2.30149 2.30206C1.98802 2.61525 1.76738 3.00911 1.66401 3.44C1.60001 3.7184 1.60001 4.032 1.60001 4.4V8.4C1.60001 8.7664 1.60001 9.0816 1.66561 9.36C1.76859 9.79098 1.98888 10.185 2.30207 10.4985C2.61526 10.812 3.00912 11.0326 3.44001 11.136C3.71841 11.2 4.03201 11.2 4.40001 11.2H8.40001C8.76641 11.2 9.08161 11.2 9.36001 11.1344C9.79099 11.0314 10.185 10.8111 10.4985 10.4979C10.812 10.1847 11.0326 9.79089 11.136 9.36C11.2 9.0816 11.2 8.768 11.2 8.4V4.4C11.2 4.0336 11.2 3.7184 11.1344 3.44C11.0314 3.00902 10.8111 2.61496 10.4979 2.30149C10.1848 1.98802 9.79089 1.76737 9.36001 1.664C9.08161 1.6 8.76801 1.6 8.40001 1.6H4.48001ZM3.81281 3.2224C3.88161 3.2064 3.98881 3.2 4.48001 3.2H8.32001C8.81281 3.2 8.91841 3.2048 8.98721 3.2224C9.13093 3.25677 9.26233 3.33028 9.36683 3.43478C9.47132 3.53927 9.54484 3.67067 9.57921 3.8144C9.59521 3.8816 9.60001 3.9872 9.60001 4.48V8.32C9.60001 8.8128 9.59521 8.9184 9.57761 8.9872C9.54324 9.13093 9.46973 9.26232 9.36523 9.36682C9.26073 9.47132 9.12933 9.54483 8.98561 9.5792C8.92001 9.5936 8.81441 9.6 8.32001 9.6H4.48001C3.98721 9.6 3.88161 9.5952 3.81281 9.5776C3.66908 9.54323 3.53768 9.46972 3.43318 9.36522C3.32869 9.26073 3.25518 9.12933 3.22081 8.9856C3.20641 8.92 3.20001 8.8144 3.20001 8.32V4.48C3.20001 3.9872 3.20481 3.8816 3.22241 3.8128C3.25678 3.66907 3.33029 3.53767 3.43478 3.43318C3.53928 3.32868 3.67068 3.25517 3.81441 3.2208L3.81281 3.2224ZM15.68 1.6H15.6C15.2336 1.6 14.9184 1.6 14.64 1.6656C14.209 1.76858 13.815 1.98887 13.5015 2.30206C13.188 2.61525 12.9674 3.00911 12.864 3.44C12.8 3.7184 12.8 4.032 12.8 4.4V8.4C12.8 8.7664 12.8 9.0816 12.8656 9.36C12.9686 9.79098 13.1889 10.185 13.5021 10.4985C13.8153 10.812 14.2091 11.0326 14.64 11.136C14.9184 11.2 15.232 11.2 15.6 11.2H19.6C19.9664 11.2 20.2816 11.2 20.56 11.1344C20.991 11.0314 21.385 10.8111 21.6985 10.4979C22.012 10.1847 22.2326 9.79089 22.336 9.36C22.4 9.0816 22.4 8.768 22.4 8.4V4.4C22.4 4.0336 22.4 3.7184 22.3344 3.44C22.2314 3.00902 22.0111 2.61496 21.6979 2.30149C21.3848 1.98802 20.9909 1.76737 20.56 1.664C20.2816 1.6 19.968 1.6 19.6 1.6H15.68ZM15.0128 3.2224C15.0816 3.2064 15.1888 3.2 15.68 3.2H19.52C20.0128 3.2 20.1184 3.2048 20.1872 3.2224C20.3309 3.25677 20.4623 3.33028 20.5668 3.43478C20.6713 3.53927 20.7448 3.67067 20.7792 3.8144C20.7952 3.8816 20.8 3.9872 20.8 4.48V8.32C20.8 8.8128 20.7936 8.9184 20.7776 8.9872C20.7432 9.13093 20.6697 9.26232 20.5652 9.36682C20.4607 9.47132 20.3293 9.54483 20.1856 9.5792C20.1184 9.5952 20.0128 9.6 19.52 9.6H15.68C15.1872 9.6 15.0816 9.5952 15.0128 9.5776C14.8691 9.54323 14.7377 9.46972 14.6332 9.36522C14.5287 9.26073 14.4552 9.12933 14.4208 8.9856C14.4064 8.92 14.4 8.8144 14.4 8.32V4.48C14.4 3.9872 14.4048 3.8816 14.4224 3.8128C14.4568 3.66907 14.5303 3.53767 14.6348 3.43318C14.7393 3.32868 14.8707 3.25517 15.0144 3.2208L15.0128 3.2224ZM4.40001 12.8H8.40001C8.76641 12.8 9.08161 12.8 9.36001 12.8656C9.79099 12.9686 10.185 13.1889 10.4985 13.5021C10.812 13.8153 11.0326 14.2091 11.136 14.64C11.2 14.9184 11.2 15.232 11.2 15.6V19.6C11.2 19.9664 11.2 20.2816 11.1344 20.56C11.0314 20.991 10.8111 21.385 10.4979 21.6985C10.1848 22.012 9.79089 22.2326 9.36001 22.336C9.08161 22.4 8.76801 22.4 8.40001 22.4H4.40001C4.03361 22.4 3.71841 22.4 3.44001 22.3344C3.00902 22.2314 2.61497 22.0111 2.30149 21.6979C1.98802 21.3847 1.76738 20.9909 1.66401 20.56C1.60001 20.2816 1.60001 19.968 1.60001 19.6V15.6C1.60001 15.2336 1.60001 14.9184 1.66561 14.64C1.76859 14.209 1.98888 13.815 2.30207 13.5015C2.61526 13.188 3.00912 12.9674 3.44001 12.864C3.71841 12.8 4.03201 12.8 4.40001 12.8ZM4.48001 14.4C3.98721 14.4 3.88161 14.4048 3.81281 14.4224C3.66908 14.4568 3.53768 14.5303 3.43318 14.6348C3.32869 14.7393 3.25518 14.8707 3.22081 15.0144C3.20641 15.08 3.20001 15.1856 3.20001 15.68V19.52C3.20001 20.0128 3.20481 20.1184 3.22241 20.1872C3.25678 20.3309 3.33029 20.4623 3.43478 20.5668C3.53928 20.6713 3.67068 20.7448 3.81441 20.7792C3.88161 20.7952 3.98721 20.8 4.48001 20.8H8.32001C8.81281 20.8 8.91841 20.7936 8.98721 20.7776C9.13093 20.7432 9.26233 20.6697 9.36683 20.5652C9.47132 20.4607 9.54484 20.3293 9.57921 20.1856C9.59521 20.1184 9.60001 20.0128 9.60001 19.52V15.68C9.60001 15.1872 9.59521 15.0816 9.57761 15.0128C9.54324 14.8691 9.46973 14.7377 9.36523 14.6332C9.26073 14.5287 9.12933 14.4552 8.98561 14.4208C8.92001 14.4064 8.81441 14.4 8.32001 14.4H4.48001ZM15.68 12.8H15.6C15.2336 12.8 14.9184 12.8 14.64 12.8656C14.209 12.9686 13.815 13.1889 13.5015 13.5021C13.188 13.8153 12.9674 14.2091 12.864 14.64C12.8 14.9184 12.8 15.232 12.8 15.6V19.6C12.8 19.9664 12.8 20.2816 12.8656 20.56C12.9686 20.991 13.1889 21.385 13.5021 21.6985C13.8153 22.012 14.2091 22.2326 14.64 22.336C14.9184 22.4016 15.2336 22.4016 15.6 22.4016H19.6C19.9664 22.4016 20.2816 22.4016 20.56 22.336C20.9907 22.2328 21.3844 22.0123 21.6976 21.6992C22.0108 21.386 22.2312 20.9923 22.3344 20.5616C22.4 20.2832 22.4 19.968 22.4 19.6016V15.6C22.4 15.2336 22.4 14.9184 22.3344 14.64C22.2314 14.209 22.0111 13.815 21.6979 13.5015C21.3848 13.188 20.9909 12.9674 20.56 12.864C20.2816 12.8 19.968 12.8 19.6 12.8H15.68ZM15.0128 14.4224C15.0816 14.4064 15.1888 14.4 15.68 14.4H19.52C20.0128 14.4 20.1184 14.4048 20.1872 14.4224C20.3309 14.4568 20.4623 14.5303 20.5668 14.6348C20.6713 14.7393 20.7448 14.8707 20.7792 15.0144C20.7952 15.0816 20.8 15.1872 20.8 15.68V19.52C20.8 20.0128 20.7936 20.1184 20.7776 20.1872C20.7432 20.3309 20.6697 20.4623 20.5652 20.5668C20.4607 20.6713 20.3293 20.7448 20.1856 20.7792C20.1184 20.7952 20.0128 20.8 19.52 20.8H15.68C15.1872 20.8 15.0816 20.7936 15.0128 20.7776C14.8691 20.7432 14.7377 20.6697 14.6332 20.5652C14.5287 20.4607 14.4552 20.3293 14.4208 20.1856C14.4064 20.12 14.4 20.0144 14.4 19.52V15.68C14.4 15.1872 14.4048 15.0816 14.4224 15.0128C14.4568 14.8691 14.5303 14.7377 14.6348 14.6332C14.7393 14.5287 14.8707 14.4552 15.0144 14.4208L15.0128 14.4224Z" fill="black"/>
</svg>
