<svg width="24" height="24" viewBox="0 0 24 24" fill="none" xmlns="http://www.w3.org/2000/svg">
<path d="M3.59998 7.20001C3.59998 6.24523 3.97926 5.32955 4.65439 4.65442C5.32952 3.97929 6.2452 3.60001 7.19998 3.60001H16.8C17.7548 3.60001 18.6704 3.97929 19.3456 4.65442C20.0207 5.32955 20.4 6.24523 20.4 7.20001V10.8036C19.9908 10.8228 19.584 10.914 19.2 11.0784V7.20001C19.2 6.56349 18.9471 5.95304 18.497 5.50295C18.0469 5.05286 17.4365 4.80001 16.8 4.80001H7.19998C6.56346 4.80001 5.95301 5.05286 5.50292 5.50295C5.05283 5.95304 4.79998 6.56349 4.79998 7.20001V18.6C4.79998 18.7591 4.73676 18.9117 4.62424 19.0243C4.51172 19.1368 4.35911 19.2 4.19998 19.2C4.04085 19.2 3.88823 19.1368 3.77571 19.0243C3.66319 18.9117 3.59998 18.7591 3.59998 18.6V7.20001ZM4.07998 20.442C4.52278 20.6628 5.07598 20.844 5.54038 20.742C5.84158 20.6748 6.23278 20.5104 6.67198 20.3256C7.73398 19.878 9.07558 19.314 10.1064 19.7292C10.8708 20.0364 10.8072 20.9064 10.5924 21.3252C10.5504 21.4044 10.5828 21.5172 10.6704 21.5376C11.1092 21.6268 11.5573 21.6623 12.0048 21.6432C12.0096 21.5866 12.0189 21.5304 12.0324 21.4752L12.4824 19.6776C12.5975 19.2139 12.8373 18.7906 13.176 18.4536L18.972 12.6576C19.1798 12.4466 19.4273 12.2789 19.7003 12.164C19.9733 12.0491 20.2663 11.9894 20.5624 11.9883C20.8585 11.9872 21.152 12.0448 21.4258 12.1576C21.6996 12.2705 21.9483 12.4364 22.1577 12.6459C22.3671 12.8553 22.5329 13.1041 22.6457 13.378C22.7584 13.6518 22.8159 13.9453 22.8146 14.2414C22.8134 14.5376 22.7536 14.8306 22.6387 15.1035C22.5237 15.3764 22.3558 15.6239 22.1448 15.8316L16.3488 21.6264C16.0111 21.9642 15.5881 22.2039 15.1248 22.32L13.6584 22.686C12.3132 23.0796 10.3056 22.9524 9.68278 22.4664C9.14398 22.0464 9.12238 21.402 9.30357 20.9736C9.34437 20.8776 9.27238 20.754 9.17038 20.7696C8.57638 20.8536 8.09038 21.0696 7.61038 21.282C6.90838 21.594 6.22318 21.8976 5.23918 21.7752C4.38598 21.6696 3.91078 21.2244 3.64918 20.7852C3.50278 20.5404 3.82438 20.3148 4.07998 20.442Z" fill="#060505"/>
</svg>
