<svg width="24" height="24" viewBox="0 0 24 24" fill="none" xmlns="http://www.w3.org/2000/svg">
<path d="M20.987 3.0125C20.6663 2.69181 20.2856 2.43743 19.8666 2.26387C19.4476 2.09031 18.9985 2.00099 18.545 2.00099C18.0915 2.00099 17.6424 2.09031 17.2234 2.26387C16.8044 2.43743 16.4237 2.69181 16.103 3.0125L4.019 15.0985C3.63808 15.4794 3.3666 15.9557 3.233 16.4775L2.0195 21.22C1.99272 21.3251 1.99373 21.4353 2.02243 21.5398C2.05113 21.6444 2.10654 21.7396 2.1832 21.8163C2.25986 21.893 2.35514 21.9484 2.45968 21.9771C2.56423 22.0058 2.67444 22.0068 2.7795 21.98L7.523 20.768C8.0452 20.6346 8.52187 20.3631 8.903 19.982L20.987 7.896C21.6345 7.24836 21.9983 6.37006 21.9983 5.45425C21.9983 4.53844 21.6345 3.66014 20.987 3.0125ZM16.987 3.8965C17.4002 3.48323 17.9607 3.25102 18.5451 3.25098C19.1295 3.25093 19.69 3.48304 20.1033 3.89625C20.5165 4.30946 20.7487 4.86991 20.7488 5.45432C20.7488 6.03873 20.5167 6.59923 20.1035 7.0125L19 8.116L15.884 4.9995L16.987 3.8965ZM15 5.8835L18.116 9L8.019 19.098C7.79654 19.3205 7.51832 19.479 7.2135 19.557L3.492 20.508L4.444 16.7875C4.522 16.4825 4.6805 16.2045 4.9025 15.9825L15 5.883V5.8835Z" fill="black"/>
</svg>
