<svg width="24" height="24" viewBox="0 0 24 24" fill="none" xmlns="http://www.w3.org/2000/svg">
<path d="M9.75 2.25C6.85875 2.25 4.5 4.60875 4.5 7.5C4.5 9.3075 5.4225 10.9125 6.8205 11.8597C4.14525 13.0072 2.25 15.6622 2.25 18.75H3.75C3.75 15.4275 6.4275 12.75 9.75 12.75C11.3587 12.75 12.7972 13.4092 13.875 14.4375L10.3358 17.9767L10.2892 18.2108L9.77325 20.8597L9.53925 21.9608L10.641 21.7267L13.2885 21.2108L13.5233 21.1642L21.0938 13.5938C21.9637 12.7238 21.9637 11.2762 21.0938 10.4062C20.6739 9.98979 20.1077 9.75418 19.5164 9.74984C18.925 9.74549 18.3554 9.97275 17.9295 10.383L14.9535 13.3597C14.2923 12.7265 13.5219 12.2183 12.6795 11.8597C13.3931 11.378 13.9778 10.7287 14.3823 9.96866C14.7869 9.20861 14.9989 8.361 15 7.5C15 4.60875 12.6413 2.25 9.75 2.25ZM9.75 3.75C11.8298 3.75 13.5 5.42025 13.5 7.5C13.5 9.57975 11.8298 11.25 9.75 11.25C7.67025 11.25 6 9.57975 6 7.5C6 5.42025 7.67025 3.75 9.75 3.75ZM19.5 11.25C19.6905 11.25 19.89 11.3115 20.0392 11.4608C20.1101 11.5291 20.1664 11.611 20.2049 11.7016C20.2433 11.7922 20.2631 11.8896 20.2631 11.988C20.2631 12.0864 20.2433 12.1838 20.2049 12.2744C20.1664 12.365 20.1101 12.4469 20.0392 12.5153L12.7733 19.7812L11.4375 20.0625L11.7188 18.7267L18.9847 11.4608C19.0517 11.3923 19.1319 11.3382 19.2205 11.302C19.3092 11.2657 19.4043 11.2481 19.5 11.25Z" fill="black"/>
</svg>
