<svg width="20" height="18" viewBox="0 0 20 18" fill="none" xmlns="http://www.w3.org/2000/svg">
<path d="M17.5571 6.71429C18.1 7.2 18.5571 7.67143 18.9 8.04286C19.1369 8.30536 19.2681 8.6464 19.2681 9C19.2681 9.35361 19.1369 9.69465 18.9 9.95715C17.4 11.5714 13.9857 14.7143 10 14.7143H9.42857M5.52857 13.4714C3.87376 12.5446 2.37854 11.3581 1.1 9.95715C0.863086 9.69465 0.731945 9.35361 0.731945 9C0.731945 8.6464 0.863086 8.30536 1.1 8.04286C2.6 6.42857 6.01429 3.28572 10 3.28572C11.5711 3.31855 13.1087 3.74595 14.4714 4.52857M17.8571 1.14286L2.14286 16.8571" stroke="black" stroke-linecap="round" stroke-linejoin="round"/>
<path d="M7.98571 11.0143C7.44916 10.4809 7.14605 9.75653 7.14286 9C7.14286 8.24223 7.44388 7.51551 7.97969 6.97969C8.51551 6.44387 9.24224 6.14285 10 6.14285C10.7565 6.14604 11.4809 6.44916 12.0143 6.98571M12.4857 10.4286C12.2314 10.8633 11.8667 11.2231 11.4286 11.4714" stroke="black" stroke-linecap="round" stroke-linejoin="round"/>
</svg>
