<svg width="20" height="20" viewBox="0 0 20 20" fill="none" xmlns="http://www.w3.org/2000/svg">
<path d="M17.5571 7.71429C18.1 8.2 18.5571 8.67143 18.9 9.04286C19.1369 9.30536 19.2681 9.6464 19.2681 10C19.2681 10.3536 19.1369 10.6946 18.9 10.9571C17.4 12.5714 13.9857 15.7143 10 15.7143H9.42857M5.52857 14.4714C3.87376 13.5446 2.37854 12.3581 1.1 10.9571C0.863086 10.6946 0.731945 10.3536 0.731945 10C0.731945 9.6464 0.863086 9.30536 1.1 9.04286C2.6 7.42857 6.01429 4.28572 10 4.28572C11.5711 4.31855 13.1087 4.74595 14.4714 5.52857M17.8571 2.14286L2.14286 17.8571" stroke="white" stroke-linecap="round" stroke-linejoin="round"/>
<path d="M7.98571 12.0143C7.44916 11.4809 7.14605 10.7565 7.14286 10C7.14286 9.24223 7.44388 8.51551 7.97969 7.97969C8.51551 7.44387 9.24224 7.14285 10 7.14285C10.7565 7.14604 11.4809 7.44916 12.0143 7.98571M12.4857 11.4286C12.2314 11.8633 11.8667 12.2231 11.4286 12.4714" stroke="white" stroke-linecap="round" stroke-linejoin="round"/>
</svg>
