<svg width="154" height="28" viewBox="0 0 154 28" fill="none" xmlns="http://www.w3.org/2000/svg">
<g clip-path="url(#clip0_402_63)">
<path d="M44.38 21.24C43.6133 21.24 42.8967 21.0333 42.23 20.62C41.57 20.2067 41.0367 19.6233 40.63 18.87C40.2233 18.1167 40.02 17.2267 40.02 16.2C40.02 15.1467 40.2233 14.2467 40.63 13.5C41.0367 12.7533 41.57 12.1833 42.23 11.79C42.8967 11.3967 43.6133 11.2 44.38 11.2C44.92 11.2 45.4033 11.2833 45.83 11.45C46.2633 11.61 46.64 11.8333 46.96 12.12C47.28 12.4067 47.5433 12.7333 47.75 13.1C47.9633 13.46 48.12 13.84 48.22 14.24L46.62 14.38C46.4533 13.8267 46.1733 13.39 45.78 13.07C45.3933 12.7433 44.92 12.58 44.36 12.58C43.8867 12.58 43.44 12.7167 43.02 12.99C42.6067 13.2567 42.27 13.66 42.01 14.2C41.75 14.7333 41.62 15.4 41.62 16.2C41.62 16.94 41.7367 17.5833 41.97 18.13C42.21 18.67 42.5367 19.09 42.95 19.39C43.3633 19.69 43.8333 19.84 44.36 19.84C45.1 19.84 45.66 19.66 46.04 19.3C46.4267 18.9333 46.62 18.4267 46.62 17.78H48.22C48.22 18.4467 48.0633 19.04 47.75 19.56C47.4367 20.08 46.99 20.49 46.41 20.79C45.8367 21.09 45.16 21.24 44.38 21.24ZM57.8325 11.42H59.3925V21H57.8325V11.42ZM51.0525 11.42H52.6125V17.38C52.6125 18.18 52.8058 18.7867 53.1925 19.2C53.5858 19.6133 54.1458 19.82 54.8725 19.82C55.4725 19.82 55.9925 19.66 56.4325 19.34C56.8792 19.02 57.2225 18.58 57.4625 18.02C57.7092 17.4533 57.8325 16.8067 57.8325 16.08H58.4125C58.4125 17.1533 58.2558 18.07 57.9425 18.83C57.6358 19.59 57.1992 20.1733 56.6325 20.58C56.0725 20.98 55.4125 21.18 54.6525 21.18C53.9325 21.18 53.3025 21.0467 52.7625 20.78C52.2225 20.5133 51.8025 20.11 51.5025 19.57C51.2025 19.0233 51.0525 18.3333 51.0525 17.5V11.42ZM63.4419 21V7.36H65.0019V21H63.4419ZM71.9873 21.24C71.4673 21.24 71.0007 21.14 70.5873 20.94C70.174 20.74 69.8473 20.44 69.6073 20.04C69.3673 19.64 69.2473 19.14 69.2473 18.54V8.78H70.7873V18.5C70.7873 19.4867 71.2473 19.98 72.1673 19.98C72.4407 19.98 72.704 19.95 72.9573 19.89C73.2173 19.83 73.5073 19.74 73.8273 19.62L74.0473 20.74C73.7073 20.8867 73.3673 21.0067 73.0273 21.1C72.694 21.1933 72.3473 21.24 71.9873 21.24ZM67.7073 12.52V11.44H73.8073V12.52H67.7073ZM83.0669 11.42H84.6269V21H83.0669V11.42ZM76.2869 11.42H77.8469V17.38C77.8469 18.18 78.0402 18.7867 78.4269 19.2C78.8202 19.6133 79.3802 19.82 80.1069 19.82C80.7069 19.82 81.2269 19.66 81.6669 19.34C82.1135 19.02 82.4569 18.58 82.6969 18.02C82.9435 17.4533 83.0669 16.8067 83.0669 16.08H83.6469C83.6469 17.1533 83.4902 18.07 83.1769 18.83C82.8702 19.59 82.4335 20.1733 81.8669 20.58C81.3069 20.98 80.6469 21.18 79.8869 21.18C79.1669 21.18 78.5369 21.0467 77.9969 20.78C77.4569 20.5133 77.0369 20.11 76.7369 19.57C76.4369 19.0233 76.2869 18.3333 76.2869 17.5V11.42ZM88.6763 21V11.42H90.2363V21H88.6763ZM89.7563 16.68C89.7563 15.4667 89.8729 14.46 90.1063 13.66C90.3396 12.8533 90.6796 12.2533 91.1263 11.86C91.5796 11.46 92.1296 11.26 92.7763 11.26C92.9896 11.26 93.1829 11.2767 93.3563 11.31C93.5363 11.3367 93.7163 11.38 93.8963 11.44L93.7963 12.98C93.6096 12.92 93.4063 12.87 93.1863 12.83C92.9663 12.7833 92.7696 12.76 92.5963 12.76C92.0296 12.76 91.5729 12.9233 91.2263 13.25C90.8796 13.57 90.6263 14.0233 90.4663 14.61C90.3129 15.1967 90.2363 15.8867 90.2363 16.68H89.7563ZM99.2228 21.24C98.3961 21.24 97.6561 21.03 97.0028 20.61C96.3561 20.1833 95.8428 19.5933 95.4628 18.84C95.0895 18.0867 94.9028 17.22 94.9028 16.24C94.9028 15.1933 95.0895 14.2933 95.4628 13.54C95.8361 12.7867 96.3461 12.21 96.9928 11.81C97.6461 11.4033 98.3895 11.2 99.2228 11.2C99.9495 11.2 100.569 11.3467 101.083 11.64C101.596 11.9333 102.009 12.33 102.323 12.83C102.636 13.33 102.853 13.8967 102.973 14.53C103.099 15.1567 103.136 15.8067 103.083 16.48H96.1628V15.52H102.053L101.593 15.82C101.613 15.4267 101.589 15.0333 101.523 14.64C101.463 14.2467 101.346 13.8867 101.173 13.56C100.999 13.2267 100.756 12.96 100.443 12.76C100.129 12.56 99.7295 12.46 99.2428 12.46C98.6295 12.46 98.1161 12.6167 97.7028 12.93C97.2895 13.2433 96.9795 13.6567 96.7728 14.17C96.5661 14.6767 96.4628 15.2267 96.4628 15.82V16.46C96.4628 17.1267 96.5628 17.7233 96.7628 18.25C96.9695 18.7767 97.2761 19.1933 97.6828 19.5C98.0895 19.8067 98.6028 19.96 99.2228 19.96C99.8428 19.96 100.353 19.81 100.753 19.51C101.153 19.21 101.396 18.7667 101.483 18.18H103.103C103.003 18.8133 102.776 19.36 102.423 19.82C102.069 20.2733 101.619 20.6233 101.073 20.87C100.526 21.1167 99.9095 21.24 99.2228 21.24ZM109.596 21.24C108.823 21.24 108.113 21.0333 107.466 20.62C106.82 20.2 106.303 19.6133 105.916 18.86C105.53 18.1 105.336 17.2067 105.336 16.18C105.336 15.16 105.526 14.2767 105.906 13.53C106.286 12.7833 106.79 12.21 107.416 11.81C108.05 11.4033 108.743 11.2 109.496 11.2C110.196 11.2 110.81 11.37 111.336 11.71C111.87 12.05 112.283 12.54 112.576 13.18C112.87 13.82 113.016 14.5933 113.016 15.5H112.416C112.416 14.8667 112.29 14.3333 112.036 13.9C111.79 13.4667 111.466 13.14 111.066 12.92C110.666 12.6933 110.236 12.58 109.776 12.58C109.256 12.58 108.78 12.7267 108.346 13.02C107.92 13.3067 107.576 13.72 107.316 14.26C107.063 14.7933 106.936 15.4333 106.936 16.18C106.936 16.94 107.063 17.5933 107.316 18.14C107.576 18.6867 107.92 19.1067 108.346 19.4C108.78 19.6933 109.256 19.84 109.776 19.84C110.21 19.84 110.626 19.7267 111.026 19.5C111.433 19.2733 111.766 18.9433 112.026 18.51C112.286 18.07 112.416 17.54 112.416 16.92H113.016C113.016 17.8467 112.863 18.6333 112.556 19.28C112.256 19.92 111.846 20.4067 111.326 20.74C110.813 21.0733 110.236 21.24 109.596 21.24ZM112.676 21L112.416 18.76V7.36H113.976V21H112.676ZM122.778 21V7.36H124.338V21H122.778ZM124.098 15.52L128.978 11.44H131.158L124.098 17.18V15.52ZM129.458 21L124.918 14.96L126.498 14.68L131.378 21H129.458ZM134.927 9.18C134.607 9.18 134.354 9.09 134.167 8.91C133.981 8.72333 133.887 8.48 133.887 8.18C133.887 7.88667 133.981 7.65333 134.167 7.48C134.354 7.30667 134.607 7.22 134.927 7.22C135.247 7.22 135.501 7.30667 135.687 7.48C135.874 7.65333 135.967 7.88667 135.967 8.18C135.967 8.48 135.874 8.72333 135.687 8.91C135.501 9.09 135.247 9.18 134.927 9.18ZM134.147 21V11.42H135.707V21H134.147ZM143.424 21.24C142.651 21.24 141.941 21.0333 141.294 20.62C140.648 20.2 140.131 19.6133 139.744 18.86C139.358 18.1 139.164 17.2067 139.164 16.18C139.164 15.16 139.354 14.2767 139.734 13.53C140.114 12.7833 140.618 12.21 141.244 11.81C141.878 11.4033 142.571 11.2 143.324 11.2C144.024 11.2 144.638 11.37 145.164 11.71C145.698 12.05 146.111 12.54 146.404 13.18C146.698 13.82 146.844 14.5933 146.844 15.5H146.244C146.244 14.8667 146.118 14.3333 145.864 13.9C145.618 13.4667 145.294 13.14 144.894 12.92C144.494 12.6933 144.064 12.58 143.604 12.58C143.084 12.58 142.608 12.7267 142.174 13.02C141.748 13.3067 141.404 13.72 141.144 14.26C140.891 14.7933 140.764 15.4333 140.764 16.18C140.764 16.94 140.891 17.5933 141.144 18.14C141.404 18.6867 141.748 19.1067 142.174 19.4C142.608 19.6933 143.084 19.84 143.604 19.84C144.038 19.84 144.454 19.7267 144.854 19.5C145.261 19.2733 145.594 18.9433 145.854 18.51C146.114 18.07 146.244 17.54 146.244 16.92H146.844C146.844 17.8467 146.691 18.6333 146.384 19.28C146.084 19.92 145.674 20.4067 145.154 20.74C144.641 21.0733 144.064 21.24 143.424 21.24ZM146.504 21L146.244 18.76V7.36H147.804V21H146.504ZM150.44 20.07C150.44 19.7567 150.55 19.4867 150.77 19.26C150.99 19.0333 151.267 18.92 151.6 18.92C151.933 18.92 152.217 19.0333 152.45 19.26C152.683 19.4867 152.8 19.7567 152.8 20.07C152.8 20.3833 152.683 20.6467 152.45 20.86C152.217 21.0733 151.933 21.18 151.6 21.18C151.267 21.18 150.99 21.0733 150.77 20.86C150.55 20.64 150.44 20.3767 150.44 20.07Z" fill="white"/>
<path fill-rule="evenodd" clip-rule="evenodd" d="M15 4H11V24H15V4ZM4.81936 9L0 16.0588H0.0102113L4.82957 23.7059H9L4.17043 16.0588L8.98979 9H4.81936ZM17 16.0588L21.8194 9H25.9898L21.1704 16.0588L26 23.7059H21.8296L17.0102 16.0588H17ZM31 23.5C32.1046 23.5 33 22.6046 33 21.5C33 20.3954 32.1046 19.5 31 19.5C29.8954 19.5 29 20.3954 29 21.5C29 22.6046 29.8954 23.5 31 23.5Z" fill="white"/>
</g>
<defs>
<clipPath id="clip0_402_63">
<rect width="154" height="28" fill="white"/>
</clipPath>
</defs>
</svg>
