<svg width="24" height="24" viewBox="0 0 24 24" fill="none" xmlns="http://www.w3.org/2000/svg">
<path fill-rule="evenodd" clip-rule="evenodd" d="M19.75 12C19.75 11.8011 19.671 11.6103 19.5303 11.4697C19.3897 11.329 19.1989 11.25 19 11.25H5C4.80109 11.25 4.61032 11.329 4.46967 11.4697C4.32902 11.6103 4.25 11.8011 4.25 12C4.25 12.1989 4.32902 12.3897 4.46967 12.5303C4.61032 12.671 4.80109 12.75 5 12.75H19C19.1989 12.75 19.3897 12.671 19.5303 12.5303C19.671 12.3897 19.75 12.1989 19.75 12ZM19.75 7C19.75 6.80109 19.671 6.61032 19.5303 6.46967C19.3897 6.32902 19.1989 6.25 19 6.25H5C4.80109 6.25 4.61032 6.32902 4.46967 6.46967C4.32902 6.61032 4.25 6.80109 4.25 7C4.25 7.19891 4.32902 7.38968 4.46967 7.53033C4.61032 7.67098 4.80109 7.75 5 7.75H19C19.1989 7.75 19.3897 7.67098 19.5303 7.53033C19.671 7.38968 19.75 7.19891 19.75 7ZM19.75 17C19.75 16.8011 19.671 16.6103 19.5303 16.4697C19.3897 16.329 19.1989 16.25 19 16.25H5C4.80109 16.25 4.61032 16.329 4.46967 16.4697C4.32902 16.6103 4.25 16.8011 4.25 17C4.25 17.1989 4.32902 17.3897 4.46967 17.5303C4.61032 17.671 4.80109 17.75 5 17.75H19C19.1989 17.75 19.3897 17.671 19.5303 17.5303C19.671 17.3897 19.75 17.1989 19.75 17Z" fill="black"/>
</svg>
