<svg width="24" height="24" viewBox="0 0 24 24" fill="none" xmlns="http://www.w3.org/2000/svg">
<path d="M13 4H14.5M13 4H11.5M13 4V5.5M13 4V2.5" stroke="white" stroke-linecap="round" stroke-linejoin="round"/>
<path d="M19 11H20.5M19 11H17.5M19 11V12.5M19 11V9.5" stroke="white" stroke-linecap="round" stroke-linejoin="round"/>
<path d="M19 4H20.5M19 4H17.5M19 4V5.5M19 4V2.5" stroke="white" stroke-linecap="round" stroke-linejoin="round"/>
<path d="M7 6C7 12.08 11.92 17 18 17C18.53 17 19.05 16.96 19.56 16.89C17.95 19.36 15.17 21 12 21C7.03 21 3 16.97 3 12C3 8.83 4.64 6.05 7.11 4.44C7.04 4.95 7 5.47 7 6Z" stroke="white" stroke-width="2" stroke-linecap="round" stroke-linejoin="round"/>
</svg>
