<svg width="24" height="24" viewBox="0 0 24 24" fill="none" xmlns="http://www.w3.org/2000/svg">
<path fill-rule="evenodd" clip-rule="evenodd" d="M12 12C14.21 12 16 10.21 16 8C16 5.79 14.21 4 12 4C9.79 4 8 5.79 8 8C8 10.21 9.79 12 12 12ZM17 8C17 10.7625 14.7625 13 12 13C9.2375 13 7 10.7625 7 8C7 5.2375 9.2375 3 12 3C14.7625 3 17 5.2375 17 8ZM4.6115 17.106C4.11 17.511 4 17.8145 4 18V20H20V18C20 17.815 19.89 17.5105 19.388 17.106C18.898 16.7105 18.167 16.3335 17.281 16.0075C15.51 15.356 13.3765 15 12 15C10.6235 15 8.49 15.356 6.719 16.0075C5.833 16.3335 5.102 16.7105 4.6115 17.106ZM12 14C8.996 14 3 15.5175 3 18V21H21V18C21 15.5175 15.004 14 12 14Z" fill="#060505"/>
</svg>
