<svg width="24" height="24" viewBox="0 0 24 24" fill="none" xmlns="http://www.w3.org/2000/svg">
<path fill-rule="evenodd" clip-rule="evenodd" d="M10.0527 3.4692C6.36442 3.4692 3.375 6.45861 3.375 10.1469C3.375 13.8352 6.36442 16.8246 10.0527 16.8246C11.575 16.8246 12.9782 16.3154 14.1013 15.458L18.8773 20.2341L19.7612 19.3502L15.0206 14.6095C16.0837 13.4269 16.7304 11.8625 16.7304 10.1469C16.7304 6.45861 13.741 3.4692 10.0527 3.4692ZM4.625 10.1469C4.625 7.14897 7.05477 4.7192 10.0527 4.7192C13.0507 4.7192 15.4804 7.14897 15.4804 10.1469C15.4804 13.1449 13.0507 15.5746 10.0527 15.5746C7.05477 15.5746 4.625 13.1449 4.625 10.1469Z" fill="#161412"/>
</svg>
