<svg width="42" height="42" viewBox="0 0 42 42" fill="none" xmlns="http://www.w3.org/2000/svg">
<path d="M31.0502 19.4653C30.8682 19.3787 30.6844 19.2959 30.499 19.2167C30.1752 13.2422 26.9115 9.82275 21.4305 9.78775H21.357C18.0775 9.78775 15.3527 11.1878 13.6745 13.734L16.688 15.8008C17.941 13.8985 19.908 13.4925 21.3587 13.4925H21.4077C23.212 13.5048 24.5752 14.0298 25.4555 15.0535C26.0977 15.7973 26.5265 16.828 26.7382 18.1265C25.0265 17.8486 23.2888 17.7646 21.5582 17.8763C16.3485 18.1773 12.9972 21.2153 13.223 25.438C13.3367 27.58 14.4042 29.4227 16.2277 30.6267C17.7677 31.6452 19.754 32.1422 21.819 32.0302C24.5438 31.8797 26.6805 30.8403 28.1715 28.9398C29.3055 27.496 30.0213 25.6252 30.338 23.268C31.6365 24.052 32.599 25.0828 33.131 26.3218C34.0357 28.4305 34.0882 31.8937 31.262 34.7165C28.7857 37.191 25.809 38.2602 21.3115 38.2935C16.3222 38.2585 12.5475 36.6573 10.094 33.5388C7.79625 30.6163 6.60975 26.3988 6.566 21C6.60975 15.6012 7.79625 11.382 10.094 8.46125C12.5475 5.34275 16.3205 3.74325 21.3115 3.7065C26.3358 3.7415 30.1752 5.3515 32.7232 8.484C33.9727 10.0223 34.9142 11.9543 35.5355 14.2065L39.067 13.265C38.3145 10.4912 37.1297 8.1025 35.5197 6.11975C32.2525 2.1 27.475 0.042 21.3238 0H21.2992C15.155 0.042 10.4352 2.10875 7.2625 6.1425C4.438 9.73 2.982 14.7262 2.933 20.986V21.014C2.982 27.2755 4.438 32.2682 7.26075 35.8575C10.4335 39.8912 15.1567 41.958 21.2992 42H21.3238C26.7837 41.9615 30.632 40.5317 33.8012 37.3642C37.9505 33.2202 37.8262 28.0262 36.4577 24.8377C35.4777 22.5505 33.607 20.6938 31.0502 19.4653ZM21.623 28.329C19.3392 28.4585 16.968 27.433 16.849 25.2385C16.7615 23.611 18.0075 21.7927 21.763 21.5775C22.1935 21.5512 22.6152 21.5408 23.03 21.5408C24.395 21.5408 25.669 21.672 26.8292 21.9258C26.397 27.3298 23.8595 28.2065 21.623 28.329Z" fill="black"/>
</svg>
