<svg width="20" height="20" viewBox="0 0 20 20" fill="none" xmlns="http://www.w3.org/2000/svg">
<path d="M13.3333 1.45833V2.5H17.7083C17.8741 2.5 18.0331 2.56585 18.1503 2.68306C18.2675 2.80027 18.3333 2.95924 18.3333 3.125C18.3333 3.29076 18.2675 3.44973 18.1503 3.56694C18.0331 3.68415 17.8741 3.75 17.7083 3.75H2.29166C2.1259 3.75 1.96692 3.68415 1.84971 3.56694C1.7325 3.44973 1.66666 3.29076 1.66666 3.125C1.66666 2.95924 1.7325 2.80027 1.84971 2.68306C1.96692 2.56585 2.1259 2.5 2.29166 2.5H6.66666V1.45833C6.66666 0.653333 7.31999 0 8.12499 0H11.875C12.68 0 13.3333 0.653333 13.3333 1.45833ZM7.91666 1.45833V2.5H12.0833V1.45833C12.0833 1.40308 12.0614 1.35009 12.0223 1.31102C11.9832 1.27195 11.9302 1.25 11.875 1.25H8.12499C8.06974 1.25 8.01675 1.27195 7.97768 1.31102C7.93861 1.35009 7.91666 1.40308 7.91666 1.45833ZM4.16416 5.14833C4.15703 5.06605 4.13367 4.986 4.09542 4.9128C4.05717 4.8396 4.00479 4.77471 3.94131 4.72187C3.87783 4.66904 3.80451 4.62931 3.72558 4.60498C3.64666 4.58065 3.56369 4.57221 3.48148 4.58014C3.39927 4.58807 3.31945 4.61221 3.24663 4.65118C3.17381 4.69014 3.10943 4.74315 3.05722 4.80714C3.00501 4.87114 2.966 4.94484 2.94244 5.024C2.91889 5.10316 2.91126 5.18621 2.91999 5.26833L4.09666 17.4333C4.13185 17.7939 4.3 18.1285 4.56835 18.3719C4.8367 18.6153 5.18604 18.7501 5.54832 18.75H14.4517C14.8141 18.75 15.1635 18.6151 15.4319 18.3716C15.7003 18.128 15.8683 17.7932 15.9033 17.4325L17.0808 5.26833C17.0967 5.10324 17.0464 4.93858 16.9409 4.81059C16.8354 4.68259 16.6834 4.60175 16.5183 4.58583C16.3532 4.56992 16.1886 4.62024 16.0606 4.72573C15.9326 4.83122 15.8517 4.98324 15.8358 5.14833L14.6592 17.3117C14.6542 17.3632 14.6302 17.4111 14.5918 17.4459C14.5534 17.4808 14.5035 17.5 14.4517 17.5H5.54832C5.49651 17.5 5.44654 17.4808 5.40818 17.4459C5.36981 17.4111 5.3458 17.3632 5.34082 17.3117L4.16416 5.14833Z" fill="black"/>
<path d="M7.67167 6.25083C7.75364 6.24599 7.83577 6.25734 7.91335 6.28425C7.99093 6.31115 8.06246 6.35308 8.12383 6.40765C8.1852 6.46221 8.23521 6.52832 8.27102 6.60222C8.30683 6.67612 8.32772 6.75636 8.3325 6.83833L8.74917 13.9217C8.75889 14.0873 8.70241 14.25 8.59216 14.3741C8.4819 14.4981 8.3269 14.5732 8.16125 14.5829C7.9956 14.5926 7.83287 14.5362 7.70886 14.4259C7.58486 14.3157 7.50973 14.1607 7.5 13.995L7.08333 6.91167C7.07849 6.82969 7.08984 6.74757 7.11675 6.66998C7.14365 6.5924 7.18559 6.52088 7.24015 6.45951C7.29471 6.39814 7.36083 6.34812 7.43473 6.31231C7.50863 6.27651 7.58886 6.25562 7.67083 6.25083H7.67167ZM12.9158 6.91167C12.9256 6.74602 12.8691 6.58329 12.7588 6.45928C12.6486 6.33527 12.4936 6.26014 12.3279 6.25042C12.1623 6.24069 11.9995 6.29717 11.8755 6.40743C11.7515 6.51768 11.6764 6.67268 11.6667 6.83833L11.25 13.9217C11.2403 14.0872 11.2967 14.2498 11.4069 14.3738C11.5171 14.4977 11.672 14.5728 11.8375 14.5825C12.003 14.5922 12.1657 14.5358 12.2896 14.4256C12.4135 14.3154 12.4886 14.1605 12.4983 13.995L12.9158 6.91167Z" fill="black"/>
</svg>
