<svg width="42" height="42" viewBox="0 0 42 42" fill="none" xmlns="http://www.w3.org/2000/svg">
<path d="M37.7003 12.432C37.7258 12.8024 37.7258 13.1726 37.7258 13.5463C37.7258 24.9322 29.0578 38.0638 13.2083 38.0638V38.0572C8.52603 38.0638 3.94076 36.7226 0 34.1939C0.680859 34.2759 1.365 34.3169 2.05078 34.3186C5.93155 34.3217 9.7007 33.0201 12.7526 30.6229C10.9544 30.5889 9.21187 29.9939 7.7685 28.921C6.32513 27.8481 5.25312 26.3509 4.70236 24.6389C5.99419 24.8883 7.32506 24.8368 8.59294 24.4903C4.57275 23.6781 1.68066 20.1462 1.68066 16.0443V15.935C2.87907 16.6027 4.22036 16.9726 5.59158 17.0136C1.80469 14.4831 0.638203 9.44605 2.92458 5.50822C5.08787 8.17019 7.78693 10.3473 10.8464 11.8982C13.906 13.4491 17.2575 14.3391 20.6834 14.5103C20.3419 13.0399 20.3924 11.5056 20.8299 10.0609C21.2674 8.61615 22.0766 7.31159 23.1765 6.27767C26.647 3.01513 32.1054 3.18247 35.3676 6.65141C37.2974 6.27037 39.148 5.56284 40.8397 4.55928C40.1964 6.55451 38.8504 8.24818 37.0519 9.3253C38.76 9.1239 40.4281 8.66651 42 7.9685C40.8436 9.70022 39.3876 11.2117 37.7003 12.432Z" fill="#1D9BF0"/>
</svg>
