<svg width="16" height="16" viewBox="0 0 16 16" fill="none" xmlns="http://www.w3.org/2000/svg">
<path d="M8 8C6.9 8 5.95834 7.60833 5.175 6.825C4.39167 6.04167 4 5.1 4 4C4 2.9 4.39167 1.95833 5.175 1.175C5.95834 0.391667 6.9 0 8 0C9.1 0 10.0417 0.391667 10.825 1.175C11.6083 1.95833 12 2.9 12 4C12 5.1 11.6083 6.04167 10.825 6.825C10.0417 7.60833 9.1 8 8 8ZM14 16H2C1.45 16 0.979002 15.804 0.587002 15.412C0.195002 15.02 -0.000664969 14.5493 1.69779e-06 14V13.2C1.69779e-06 12.6333 0.146002 12.1123 0.438002 11.637C0.730002 11.1617 1.11733 10.7993 1.6 10.55C2.63333 10.0333 3.68334 9.64567 4.75 9.387C5.81667 9.12833 6.9 8.99933 8 9C9.1 9 10.1833 9.12933 11.25 9.388C12.3167 9.64667 13.3667 10.034 14.4 10.55C14.8833 10.8 15.271 11.1627 15.563 11.638C15.855 12.1133 16.0007 12.634 16 13.2V14C16 14.55 15.804 15.021 15.412 15.413C15.02 15.805 14.5493 16.0007 14 16ZM2 14H14V13.2C14 13.0167 13.954 12.85 13.862 12.7C13.77 12.55 13.6493 12.4333 13.5 12.35C12.6 11.9 11.6917 11.5627 10.775 11.338C9.85833 11.1133 8.93334 11.0007 8 11C7.06667 11 6.14167 11.1127 5.225 11.338C4.30834 11.5633 3.4 11.9007 2.5 12.35C2.35 12.4333 2.229 12.55 2.137 12.7C2.045 12.85 1.99934 13.0167 2 13.2V14ZM8 6C8.55 6 9.021 5.804 9.413 5.412C9.805 5.02 10.0007 4.54933 10 4C10 3.45 9.804 2.979 9.412 2.587C9.02 2.195 8.54934 1.99933 8 2C7.45 2 6.979 2.196 6.587 2.588C6.195 2.98 5.99934 3.45067 6 4C6 4.55 6.196 5.021 6.588 5.413C6.98 5.805 7.45067 6.00067 8 6Z" fill="white"/>
</svg>
